
    <svg width="800" height="200" viewBox="0 0 800 200" xmlns="http://www.w3.org/2000/svg">
      <defs>
        
        <style>
          @import url('https://fonts.googleapis.com/css2?family=Inter:wght@400;500;600;700&amp;display=swap');
          @keyframes pulse {
            0%, 100% { transform: scale(1); }
            50% { transform: scale(1.05); }
          }
          @keyframes float {
            0%, 100% { transform: translateY(0); }
            50% { transform: translateY(-10px); }
          }
          @keyframes shake {
            0%, 100% { transform: translateX(0); }
            25% { transform: translateX(-5px) rotate(-5deg); }
            75% { transform: translateX(5px) rotate(5deg); }
          }
          .anim-pulse { animation: pulse 2s infinite ease-in-out; }
          .anim-float { animation: float 3s infinite ease-in-out; }
          .anim-shake { animation: shake 0.5s infinite ease-in-out; }
        </style>
      </defs>
      <rect x="0" y="0" width="800" height="200" fill="#ffffff" rx="16" stroke="rgba(255,255,255,0.1)" stroke-width="10" />
      
      <g class="anim-float" style="animation-delay: 0s; transform-box: fill-box; transform-origin: center;">
        
        <svg x="220" y="20" width="64" height="64" viewBox="0 0 24 24" opacity="1" transform="rotate(0 252 52)">
          <path d="M11.915 0 11.7.215C9.515 2.4 7.47 6.39 6.046 10.483c-1.064 1.024-3.633 2.81-3.711 3.551-.093.87 1.746 2.611 1.55 3.235-.198.625-1.304 1.408-1.014 1.939.1.188.823.011 1.277-.491a13.389 13.389 0 0 0-.017 2.14c.076.906.27 1.668.643 2.232.372.563.956.911 1.667.911.397 0 .727-.114 1.024-.264.298-.149.571-.33.91-.5.68-.34 1.634-.666 3.53-.604 1.903.062 2.872.39 3.559.704.687.314 1.15.664 1.925.664.767 0 1.395-.336 1.807-.9.412-.563.631-1.33.72-2.24.06-.623.055-1.32 0-2.066.454.45 1.117.604 1.213.424.29-.53-.816-1.314-1.013-1.937-.198-.624 1.642-2.366 1.549-3.236-.08-.748-2.707-2.568-3.748-3.586C16.428 6.374 14.308 2.394 12.13.215zm.175 6.038a2.95 2.95 0 0 1 2.943 2.942 2.95 2.95 0 0 1-2.943 2.943A2.95 2.95 0 0 1 9.148 8.98a2.95 2.95 0 0 1 2.942-2.942zM8.685 7.983a3.515 3.515 0 0 0-.145.997c0 1.951 1.6 3.55 3.55 3.55 1.95 0 3.55-1.598 3.55-3.55 0-.329-.046-.648-.132-.951.334.095.64.208.915.336a42.699 42.699 0 0 1 2.042 5.829c.678 2.545 1.01 4.92.846 6.607-.082.844-.29 1.51-.606 1.94-.315.431-.713.651-1.315.651-.593 0-.932-.27-1.673-.61-.741-.338-1.825-.694-3.792-.758-1.974-.064-3.073.293-3.821.669-.375.188-.659.373-.911.5s-.466.2-.752.2c-.53 0-.876-.209-1.16-.64-.285-.43-.474-1.101-.545-1.948-.141-1.693.176-4.069.823-6.614a43.155 43.155 0 0 1 1.934-5.783c.348-.167.749-.31 1.192-.425zm-3.382 4.362a.216.216 0 0 1 .13.031c-.166.56-.323 1.116-.463 1.665a33.849 33.849 0 0 0-.547 2.555 3.9 3.9 0 0 0-.2-.39c-.58-1.012-.914-1.642-1.16-2.08.315-.24 1.679-1.755 2.24-1.781zm13.394.01c.562.027 1.926 1.543 2.24 1.783-.246.438-.58 1.068-1.16 2.08a4.428 4.428 0 0 0-.163.309 32.354 32.354 0 0 0-.562-2.49 40.579 40.579 0 0 0-.482-1.652.216.216 0 0 1 .127-.03z" fill="#000000" />
        </svg>
        
          <text x="252" y="104" text-anchor="middle" fill="white" font-family="sans-serif" font-size="12" font-weight="500" style="text-shadow: 0 1px 2px rgba(0,0,0,0.5)">OpenJDK</text>
        
      
      </g>
    

      <g class="anim-float" style="animation-delay: 0.1s; transform-box: fill-box; transform-origin: center;">
        
        <svg x="320" y="20" width="64" height="64" viewBox="0 0 24 24" opacity="1" transform="rotate(0 352 52)">
          <path d="M19.793 16.575c0 3.752-2.927 7.426-7.743 7.426-5.249 0-7.843-3.71-7.843-8.29 0-5.21 3.892-12.952 8-15.647a.397.397 0 0 1 .61.371 9.716 9.716 0 0 0 1.694 6.518c.522.795 1.092 1.478 1.763 2.352.94 1.227 1.637 1.906 2.644 3.842l.015.028a7.107 7.107 0 0 1 .86 3.4z" fill="#4B275F" />
        </svg>
        
          <text x="352" y="104" text-anchor="middle" fill="white" font-family="sans-serif" font-size="12" font-weight="500" style="text-shadow: 0 1px 2px rgba(0,0,0,0.5)">Elixir</text>
        
      
      </g>
    

      <g class="anim-float" style="animation-delay: 0.2s; transform-box: fill-box; transform-origin: center;">
        
        <svg x="444" y="102" width="64" height="64" viewBox="0 0 24 24" opacity="1" transform="rotate(0 476 134)">
          <path d="M4.589 24c4.537 0 13.81-1.516 14.821-3v-5.729c-.957 1.408-10.284 2.912-14.821 2.912V24zM4.589 16.365c4.537 0 13.81-1.516 14.821-3V7.636c-.957 1.408-10.284 2.912-14.821 2.912v5.817zM4.589 8.729c4.537 0 13.81-1.516 14.821-3V0C18.453 1.408 9.126 2.912 4.589 2.912v5.817z" fill="#DC322F" />
        </svg>
        
          <text x="476" y="186" text-anchor="middle" fill="white" font-family="sans-serif" font-size="12" font-weight="500" style="text-shadow: 0 1px 2px rgba(0,0,0,0.5)">Scala</text>
        
      
      </g>
    

      <g class="anim-float" style="animation-delay: 0.30000000000000004s; transform-box: fill-box; transform-origin: center;">
        
        <svg x="440" y="20" width="64" height="64" viewBox="0 0 24 24" opacity="1" transform="rotate(0 472 52)">
          <path d="M20.156.083c3.033.525 3.893 2.598 3.829 4.77L24 4.822 22.635 22.71 4.89 23.926h.016C3.433 23.864.15 23.729 0 19.139l1.645-3 2.819 6.586.503 1.172 2.805-9.144-.03.007.016-.03 9.255 2.956-1.396-5.431-.99-3.9 8.82-.569-.615-.51L16.5 2.114 20.159.073l-.003.01zM0 19.089zM5.13 5.073c3.561-3.533 8.157-5.621 9.922-3.84 1.762 1.777-.105 6.105-3.673 9.636-3.563 3.532-8.103 5.734-9.864 3.957-1.766-1.777.045-6.217 3.612-9.75l.003-.003z" fill="#CC342D" />
        </svg>
        
          <text x="472" y="104" text-anchor="middle" fill="white" font-family="sans-serif" font-size="12" font-weight="500" style="text-shadow: 0 1px 2px rgba(0,0,0,0.5)">Ruby</text>
        
      
      </g>
    

      <g class="anim-float" style="animation-delay: 0.4s; transform-box: fill-box; transform-origin: center;">
        
        <svg x="545" y="102" width="64" height="64" viewBox="0 0 24 24" opacity="1" transform="rotate(0 577 134)">
          <path d="M11.503 12.216c-.119.259-.251.549-.387.858-.482 1.092-1.016 2.42-1.21 3.271a4.91 4.91 0 0 0-.112 1.096c0 .164.009.337.022.514.682.25 1.417.388 2.186.39a6.39 6.39 0 0 0 2.001-.326 3.808 3.808 0 0 1-.418-.441c-.854-1.089-1.329-2.682-2.082-5.362M8.355 6.813A6.347 6.347 0 0 0 5.657 12a6.347 6.347 0 0 0 2.625 5.134c.39-1.622 1.366-3.107 2.83-6.084-.087-.239-.186-.5-.297-.775-.406-1.018-.991-2.198-1.513-2.733a4.272 4.272 0 0 0-.947-.729M17.527 19.277c-.84-.105-1.533-.232-2.141-.446A7.625 7.625 0 0 1 4.376 12a7.6 7.6 0 0 1 2.6-5.73 5.582 5.582 0 0 0-1.324-.162c-2.236.02-4.597 1.258-5.58 4.602-.092.486-.07.854-.07 1.29 0 6.627 5.373 12 12 12 4.059 0 7.643-2.017 9.815-5.101-1.174.293-2.305.433-3.271.436-.362 0-.702-.02-1.019-.058M15.273 16.952c.074.036.242.097.475.163a6.354 6.354 0 0 0 2.6-5.115h-.002a6.354 6.354 0 0 0-6.345-6.345 6.338 6.338 0 0 0-1.992.324c1.289 1.468 1.908 3.566 2.507 5.862l.001.003c.001.002.192.637.518 1.48.326.842.789 1.885 1.293 2.645.332.51.697.876.945.983M12.001 0a11.98 11.98 0 0 0-9.752 5.013c1.134-.71 2.291-.967 3.301-.957 1.394.004 2.491.436 3.017.732.127.073.248.152.366.233A7.625 7.625 0 0 1 19.625 12a7.605 7.605 0 0 1-2.268 5.425c.344.038.709.063 1.084.061 1.328 0 2.766-.293 3.842-1.198.703-.592 1.291-1.458 1.617-2.757.065-.502.1-1.012.1-1.531 0-6.627-5.371-12-11.999-12" fill="#5881D8" />
        </svg>
        
          <text x="577" y="186" text-anchor="middle" fill="white" font-family="sans-serif" font-size="12" font-weight="500" style="text-shadow: 0 1px 2px rgba(0,0,0,0.5)">Clojure</text>
        
      
      </g>
    

      <g class="anim-float" style="animation-delay: 0.5s; transform-box: fill-box; transform-origin: center;">
        
        <svg x="540" y="20" width="64" height="64" viewBox="0 0 24 24" opacity="1" transform="rotate(0 572 52)">
          <path d="M22.394 6c-.167-.29-.398-.543-.652-.69L12.926.22c-.509-.294-1.34-.294-1.848 0L2.26 5.31c-.508.293-.923 1.013-.923 1.6v10.18c0 .294.104.62.271.91.167.29.398.543.652.69l8.816 5.09c.508.293 1.34.293 1.848 0l8.816-5.09c.254-.147.485-.4.652-.69.167-.29.27-.616.27-.91V6.91c.003-.294-.1-.62-.268-.91zM12 19.11c-3.92 0-7.109-3.19-7.109-7.11 0-3.92 3.19-7.11 7.11-7.11a7.133 7.133 0 016.156 3.553l-3.076 1.78a3.567 3.567 0 00-3.08-1.78A3.56 3.56 0 008.444 12 3.56 3.56 0 0012 15.555a3.57 3.57 0 003.08-1.778l3.078 1.78A7.135 7.135 0 0112 19.11zm7.11-6.715h-.79v.79h-.79v-.79h-.79v-.79h.79v-.79h.79v.79h.79zm2.962 0h-.79v.79h-.79v-.79h-.79v-.79h.79v-.79h.79v.79h.79z" fill="#00599C" />
        </svg>
        
          <text x="572" y="104" text-anchor="middle" fill="white" font-family="sans-serif" font-size="12" font-weight="500" style="text-shadow: 0 1px 2px rgba(0,0,0,0.5)">C++</text>
        
      
      </g>
    

      <g class="anim-float" style="animation-delay: 0.6000000000000001s; transform-box: fill-box; transform-origin: center;">
        
        <svg x="635" y="107" width="64" height="64" viewBox="0 0 24 24" opacity="1" transform="rotate(0 667 139)">
          <path d="M4.589 24c4.537 0 13.81-1.516 14.821-3v-5.729c-.957 1.408-10.284 2.912-14.821 2.912V24zM4.589 16.365c4.537 0 13.81-1.516 14.821-3V7.636c-.957 1.408-10.284 2.912-14.821 2.912v5.817zM4.589 8.729c4.537 0 13.81-1.516 14.821-3V0C18.453 1.408 9.126 2.912 4.589 2.912v5.817z" fill="#DC322F" />
        </svg>
        
          <text x="667" y="191" text-anchor="middle" fill="white" font-family="sans-serif" font-size="12" font-weight="500" style="text-shadow: 0 1px 2px rgba(0,0,0,0.5)">Scala</text>
        
      
      </g>
    

      <g class="anim-float" style="animation-delay: 0.7000000000000001s; transform-box: fill-box; transform-origin: center;">
        
        <svg x="640" y="20" width="64" height="64" viewBox="0 0 24 24" opacity="1" transform="rotate(0 672 52)">
          <path d="M22.394 6c-.167-.29-.398-.543-.652-.69L12.926.22c-.509-.294-1.34-.294-1.848 0L2.26 5.31c-.508.293-.923 1.013-.923 1.6v10.18c0 .294.104.62.271.91.167.29.398.543.652.69l8.816 5.09c.508.293 1.34.293 1.848 0l8.816-5.09c.254-.147.485-.4.652-.69.167-.29.27-.616.27-.91V6.91c.003-.294-.1-.62-.268-.91zM12 19.11c-3.92 0-7.109-3.19-7.109-7.11 0-3.92 3.19-7.11 7.11-7.11a7.133 7.133 0 016.156 3.553l-3.076 1.78a3.567 3.567 0 00-3.08-1.78A3.56 3.56 0 008.444 12 3.56 3.56 0 0012 15.555a3.57 3.57 0 003.08-1.778l3.078 1.78A7.135 7.135 0 0112 19.11zm7.11-6.715h-.79v.79h-.79v-.79h-.79v-.79h.79v-.79h.79v.79h.79zm2.962 0h-.79v.79h-.79v-.79h-.79v-.79h.79v-.79h.79v.79h.79z" fill="#00599C" />
        </svg>
        
          <text x="672" y="104" text-anchor="middle" fill="white" font-family="sans-serif" font-size="12" font-weight="500" style="text-shadow: 0 1px 2px rgba(0,0,0,0.5)">C++</text>
        
      
      </g>
    

      <g class="anim-float" style="animation-delay: 0.8s; transform-box: fill-box; transform-origin: center;">
        
        <svg x="325" y="98" width="64" height="64" viewBox="0 0 24 24" opacity="1" transform="rotate(0 357 130)">
          <path d="M24 24H0V0h24L12 12Z" fill="#7F52FF" />
        </svg>
        
          <text x="357" y="182" text-anchor="middle" fill="white" font-family="sans-serif" font-size="12" font-weight="500" style="text-shadow: 0 1px 2px rgba(0,0,0,0.5)">Kotlin</text>
        
      
      </g>
    
    </svg>
  