
    <svg width="1584" height="396" viewBox="0 0 1584 396" xmlns="http://www.w3.org/2000/svg">
      <defs>
        
        <style>
          @import url('https://fonts.googleapis.com/css2?family=Inter:wght@400;500;600;700&amp;display=swap');
          @keyframes pulse {
            0%, 100% { transform: scale(1); }
            50% { transform: scale(1.05); }
          }
          @keyframes float {
            0%, 100% { transform: translateY(0); }
            50% { transform: translateY(-10px); }
          }
          @keyframes shake {
            0%, 100% { transform: translateX(0); }
            25% { transform: translateX(-5px) rotate(-5deg); }
            75% { transform: translateX(5px) rotate(5deg); }
          }
          .anim-pulse { animation: pulse 2s infinite ease-in-out; }
          .anim-float { animation: float 3s infinite ease-in-out; }
          .anim-shake { animation: shake 0.5s infinite ease-in-out; }
        </style>
      </defs>
      <rect x="0" y="0" width="1584" height="396" fill="#ffffff" rx="16" stroke="none" stroke-width="0" />
      
      <g class="anim-float" style="animation-delay: 0s; transform-box: fill-box; transform-origin: center;">
        
        <svg x="760" y="40" width="64" height="64" viewBox="0 0 24 24" opacity="1" transform="rotate(0 792 72)">
          <path d="M6.0988 5.9175C2.7359 5.9175 0 8.6462 0 12s2.736 6.0825 6.0988 6.0825h11.8024C21.2641 18.0825 24 15.3538 24 12s-2.736-6.0825-6.0988-6.0825ZM5.9774 7.851c.493.0124 1.02.2496 1.273.6228.3673.4592.4778 1.0668.8944 1.4932.5604.6118 1.199 1.1505 1.7161 1.802.4892.5954.8386 1.2937 1.1436 1.9975.1244.2335.1257.5202.31.7197.0908.1204.5346.4483.4383.5645.0555.1204.4702.286.3263.4027-.1944.04-.4129.0476-.5616-.1074-.0549.126-.183.0596-.2819.0432a4 4 0 0 0-.025.0736c-.3288.0219-.5754-.3126-.732-.565-.3111-.168-.6642-.2702-.982-.446-.0182.2895.0452.6485-.231.8353-.014.5565.8436.0656.9222.4804-.061.0067-.1286-.0095-.1774.0373-.2239.2172-.4805-.1645-.7385-.007-.3464.174-.3808.3161-.8096.352-.0237-.0359-.0143-.0592.0059-.0811.1207-.1399.1295-.3046.3356-.3643-.2122-.0334-.3899.0833-.5686.1757-.2323.095-.2304-.2141-.5878.0164-.0396-.0322-.0208-.0615.0018-.0864.0908-.1107.2102-.127.345-.1208-.663-.3686-.9751.4507-1.2813.0432-.092.0243-.1265.1068-.1845.1652-.05-.0548-.0123-.1212-.0099-.1857-.0598-.028-.1356-.041-.1179-.1366-.1171-.0395-.1988.0295-.286.0952-.0787-.0608.0532-.1492.0776-.2125.0702-.1216.23-.025.3111-.1126.2306-.1308.552.0814.8155.0455.203.0255.4544-.1825.3526-.39-.2171-.2767-.179-.6386-.1839-.9695-.0268-.1929-.491-.4382-.6252-.6462-.1659-.1873-.295-.4047-.4243-.6182-.4666-.9008-.3198-2.0584-.9077-2.8947-.266.1466-.6125.0774-.8418-.119-.1238.1125-.1292.2598-.139.4161-.297-.2962-.2593-.8559-.022-1.1855.0969-.1302.2127-.2373.342-.3316.0292-.0213.0391-.0419.0385-.0747.1174-.5267.5764-.7391 1.0694-.7267m12.4071.46c.5575 0 1.0806.2159 1.474.6082s.61.9145.61 1.4704c0 .556-.2167 1.078-.61 1.4698v.0006l-.902.8995a2.08 2.08 0 0 1-.8597.5166l-.0164.0047-.0058.0164a2.05 2.05 0 0 1-.474.7308l-.9018.8995c-.3934.3924-.917.6083-1.4745.6083s-1.0806-.216-1.474-.6083c-.813-.8107-.813-2.1294 0-2.9402l.9019-.8995a2.056 2.056 0 0 1 .858-.5143l.017-.0053.0058-.0158a2.07 2.07 0 0 1 .4752-.7337l.9018-.8995c.3934-.3924.9171-.6083 1.4745-.6083zm0 .8965a1.18 1.18 0 0 0-.8388.3462l-.9018.8995a1.181 1.181 0 0 0-.3427.9252l.0053.0572c.0323.2652.149.5044.3374.6917.13.1296.2733.2114.4471.2686a.9.9 0 0 1 .014.1582.884.884 0 0 1-.2609.6304l-.0554.0554c-.3013-.1028-.5525-.253-.7794-.4792a2.06 2.06 0 0 1-.5761-1.0968l-.0099-.0578-.0461.0368a1.1 1.1 0 0 0-.0876.0794l-.9024.8995c-.4623.461-.4623 1.212 0 1.673.2311.2305.535.346.8394.3461.3043 0 .6077-.1156.8388-.3462l.9019-.8995c.4623-.461.4623-1.2113 0-1.673a1.17 1.17 0 0 0-.4367-.2749 1 1 0 0 1-.014-.1611c0-.2591.1023-.505.2901-.6923.3019.1028.57.2694.7962.495.3007.2999.4994.679.5756 1.0968l.0105.0578.0455-.0373a1.1 1.1 0 0 0 .0887-.0794l.902-.8996c.4622-.461.4628-1.2124 0-1.6735a1.18 1.18 0 0 0-.8395-.3462Zm-9.973 5.1567-.0006.0006c-.0793.3078-.1048.8318-.506.847-.033.1776.1228.2445.2655.1874.141-.0645.2081.0508.2557.1657.2177.0317.5394-.0725.5516-.3298-.325-.1867-.4253-.5418-.5662-.8709" fill="#1C3C3C" />
        </svg>
        
      
      </g>
    

      <g class="anim-float" style="animation-delay: 0.1s; transform-box: fill-box; transform-origin: center;">
        
        <svg x="874.3153532995459" y="90" width="64" height="64" viewBox="0 0 24 24" opacity="1" transform="rotate(0 906.3153532995459 122)">
          <path d="M6.099 5.88H17.9C21.264 5.88 24 8.625 24 12s-2.736 6.12-6.099 6.12H6.1C2.736 18.12 0 15.375 0 12s2.736-6.12 6.099-6.12Zm5.419 9.487c.148.156.367.148.561.108h.002c.09-.073-.038-.166-.16-.254-.074-.054-.145-.105-.166-.15.068-.083-.132-.27-.289-.417a1.539 1.539 0 0 1-.15-.151c-.11-.12-.155-.273-.2-.427a1.575 1.575 0 0 0-.11-.297c-.304-.708-.653-1.41-1.143-2.01-.315-.398-.674-.755-1.033-1.112-.232-.23-.463-.46-.683-.701-.226-.234-.362-.521-.499-.81-.114-.24-.228-.482-.396-.693-.507-.75-2.107-.955-2.342.105 0 .033-.01.054-.039.075-.13.095-.245.203-.342.334-.238.332-.274.895.022 1.193l.001-.02c.01-.15.02-.29.139-.399.228.198.576.268.841.12.32.46.422 1.015.525 1.572.085.464.17.93.382 1.341l.014.022c.124.208.25.419.41.6.059.09.178.187.297.284.157.128.314.256.329.366v.146c-.001.29-.002.59.184.83.103.208-.15.418-.352.392a.989.989 0 0 1-.354-.043c-.165-.04-.329-.08-.462-.003-.038.04-.091.042-.145.043-.064.002-.129.004-.167.07a.29.29 0 0 1-.045.066c-.042.051-.087.107-.033.149l.015-.011c.082-.063.16-.123.27-.085-.014.082.039.103.092.125l.027.012a.357.357 0 0 1-.008.057c-.009.046-.017.09.018.13a.605.605 0 0 0 .046-.056c.037-.046.073-.094.139-.11.144.192.289.112.471.012.206-.114.459-.253.81-.056-.135-.007-.255.01-.345.121-.023.025-.042.054-.002.087.207-.135.294-.086.375-.04.06.032.115.063.212.024l.07-.037c.155-.084.314-.17.499-.14-.139.04-.188.127-.242.223-.026.047-.054.097-.094.143-.021.021-.03.046-.007.082.29-.024.4-.098.548-.197.07-.047.15-.1.261-.157.124-.076.248-.028.368.02.13.05.255.1.371-.013.037-.035.083-.035.129-.036.016 0 .033 0 .05-.002-.037-.194-.24-.191-.448-.189-.24.003-.483.005-.475-.295.222-.152.224-.415.226-.665 0-.06 0-.119.005-.176.163.092.336.163.508.234.162.066.323.133.474.215.157.254.404.59.732.568.008-.026.016-.048.026-.074.019.003.039.008.059.014.086.021.178.045.223-.057zm6.429-2.886a1.014 1.014 0 0 0 1.729-.715 1.01 1.01 0 0 0-1.013-1.01c-.126 0-.25.023-.364.068l-.58-.848-.405.278.583.851a1.009 1.009 0 0 0 .05 1.376zm-1.818-2.744a1.014 1.014 0 0 0 1.42-.615 1.008 1.008 0 0 0-.845-1.293 1.015 1.015 0 0 0-1.095.712 1.008 1.008 0 0 0 .52 1.196zm0 5.867a1.015 1.015 0 0 0 1.42-.615 1.008 1.008 0 0 0-.845-1.293 1.015 1.015 0 0 0-1.095.712 1.008 1.008 0 0 0 .52 1.196zm.932-3.586v-.503h-1.55a1.003 1.003 0 0 0-.218-.412l.583-.864-.424-.28-.583.863a1.014 1.014 0 0 0-.333-.06c-.268 0-.525.106-.714.294a1.002 1.002 0 0 0 1.047 1.655l.583.864.42-.281-.579-.864c.104-.119.178-.26.217-.412z" fill="#1C3C3C" />
        </svg>
        
      
      </g>
    

      <g class="anim-float" style="animation-delay: 0.2s; transform-box: fill-box; transform-origin: center;">
        
        <svg x="874.3153532995459" y="222" width="64" height="64" viewBox="0 0 24 24" opacity="1" transform="rotate(0 906.3153532995459 254)">
          <path d="M14.25.18l.9.2.73.26.59.3.45.32.34.34.25.34.16.33.1.3.04.26.02.2-.01.13V8.5l-.05.63-.13.55-.21.46-.26.38-.3.31-.33.25-.35.19-.35.14-.33.1-.3.07-.26.04-.21.02H8.77l-.69.05-.59.14-.5.22-.41.27-.33.32-.27.35-.2.36-.15.37-.1.35-.07.32-.04.27-.02.21v3.06H3.17l-.21-.03-.28-.07-.32-.12-.35-.18-.36-.26-.36-.36-.35-.46-.32-.59-.28-.73-.21-.88-.14-1.05-.05-1.23.06-1.22.16-1.04.24-.87.32-.71.36-.57.4-.44.42-.33.42-.24.4-.16.36-.1.32-.05.24-.01h.16l.06.01h8.16v-.83H6.18l-.01-2.75-.02-.37.05-.34.11-.31.17-.28.25-.26.31-.23.38-.2.44-.18.51-.15.58-.12.64-.1.71-.06.77-.04.84-.02 1.27.05zm-6.3 1.98l-.23.33-.08.41.08.41.23.34.33.22.41.09.41-.09.33-.22.23-.34.08-.41-.08-.41-.23-.33-.33-.22-.41-.09-.41.09zm13.09 3.95l.28.06.32.12.35.18.36.27.36.35.35.47.32.59.28.73.21.88.14 1.04.05 1.23-.06 1.23-.16 1.04-.24.86-.32.71-.36.57-.4.45-.42.33-.42.24-.4.16-.36.09-.32.05-.24.02-.16-.01h-8.22v.82h5.84l.01 2.76.02.36-.05.34-.11.31-.17.29-.25.25-.31.24-.38.2-.44.17-.51.15-.58.13-.64.09-.71.07-.77.04-.84.01-1.27-.04-1.07-.14-.9-.2-.73-.25-.59-.3-.45-.33-.34-.34-.25-.34-.16-.33-.1-.3-.04-.25-.02-.2.01-.13v-5.34l.05-.64.13-.54.21-.46.26-.38.3-.32.33-.24.35-.2.35-.14.33-.1.3-.06.26-.04.21-.02.13-.01h5.84l.69-.05.59-.14.5-.21.41-.28.33-.32.27-.35.2-.36.15-.36.1-.35.07-.32.04-.28.02-.21V6.07h2.09l.14.01zm-6.47 14.25l-.23.33-.08.41.08.41.23.33.33.23.41.08.41-.08.33-.23.23-.33.08-.41-.08-.41-.23-.33-.33-.23-.41-.08-.41.08z" fill="#3776AB" />
        </svg>
        
          <text x="906.3153532995459" y="306" text-anchor="middle" fill="white" font-family="sans-serif" font-size="12" font-weight="500" style="text-shadow: 0 1px 2px rgba(0,0,0,0.5)">Python</text>
        
      
      </g>
    

      <g class="anim-float" style="animation-delay: 0.30000000000000004s; transform-box: fill-box; transform-origin: center;">
        
        <svg x="760" y="288" width="64" height="64" viewBox="0 0 24 24" opacity="1" transform="rotate(0 792 320)">
          <path d="M21.4737 5.6842c-1.1772 0-2.1663.8051-2.4468 1.8947h-2.8955c-1.235 0-2.289.893-2.492 2.111l-.1038.623a1.263 1.263 0 0 1-1.246 1.0555H11.289c-.2805-1.0896-1.2696-1.8947-2.4468-1.8947s-2.1663.8051-2.4467 1.8947H4.973c-.2805-1.0896-1.2696-1.8947-2.4468-1.8947C1.1311 9.4737 0 10.6047 0 12s1.131 2.5263 2.5263 2.5263c1.1772 0 2.1663-.8051 2.4468-1.8947h1.4223c.2804 1.0896 1.2696 1.8947 2.4467 1.8947 1.1772 0 2.1663-.8051 2.4468-1.8947h1.0008a1.263 1.263 0 0 1 1.2459 1.0555l.1038.623c.203 1.218 1.257 2.111 2.492 2.111h.3692c.2804 1.0895 1.2696 1.8947 2.4468 1.8947 1.3952 0 2.5263-1.131 2.5263-2.5263s-1.131-2.5263-2.5263-2.5263c-1.1772 0-2.1664.805-2.4468 1.8947h-.3692a1.263 1.263 0 0 1-1.246-1.0555l-.1037-.623A2.52 2.52 0 0 0 13.9607 12a2.52 2.52 0 0 0 .821-1.4794l.1038-.623a1.263 1.263 0 0 1 1.2459-1.0555h2.8955c.2805 1.0896 1.2696 1.8947 2.4468 1.8947 1.3952 0 2.5263-1.131 2.5263-2.5263s-1.131-2.5263-2.5263-2.5263m0 1.2632a1.263 1.263 0 0 1 1.2631 1.2631 1.263 1.263 0 0 1-1.2631 1.2632 1.263 1.263 0 0 1-1.2632-1.2632 1.263 1.263 0 0 1 1.2632-1.2631M2.5263 10.7368A1.263 1.263 0 0 1 3.7895 12a1.263 1.263 0 0 1-1.2632 1.2632A1.263 1.263 0 0 1 1.2632 12a1.263 1.263 0 0 1 1.2631-1.2632m6.3158 0A1.263 1.263 0 0 1 10.1053 12a1.263 1.263 0 0 1-1.2632 1.2632A1.263 1.263 0 0 1 7.579 12a1.263 1.263 0 0 1 1.2632-1.2632m10.1053 3.7895a1.263 1.263 0 0 1 1.2631 1.2632 1.263 1.263 0 0 1-1.2631 1.2631 1.263 1.263 0 0 1-1.2632-1.2631 1.263 1.263 0 0 1 1.2632-1.2632" fill="#EA4B71" />
        </svg>
        
      
      </g>
    

      <g class="anim-float" style="animation-delay: 0.4s; transform-box: fill-box; transform-origin: center;">
        
        <svg x="645.6846467004541" y="222.00000000000006" width="64" height="64" viewBox="0 0 24 24" opacity="1" transform="rotate(0 677.6846467004541 254.00000000000006)">
          <path d="M12 .0387C5.3729.0384.0003 5.3931 0 11.9988c-.001 6.6066 5.372 11.9628 12 11.9625 6.628.0003 12.001-5.3559 12-11.9625-.0003-6.6057-5.3729-11.9604-12-11.96m-.829 5.4153h7.55l-7.5805 5.3284h5.1828L5.279 18.5436q2.9466-6.5444 5.892-13.0896" fill="#009688" />
        </svg>
        
          <text x="677.6846467004541" y="306.00000000000006" text-anchor="middle" fill="white" font-family="sans-serif" font-size="12" font-weight="500" style="text-shadow: 0 1px 2px rgba(0,0,0,0.5)">FastAPI</text>
        
      
      </g>
    

      <g class="anim-float" style="animation-delay: 0.5s; transform-box: fill-box; transform-origin: center;">
        
        <svg x="645.6846467004541" y="90.00000000000009" width="64" height="64" viewBox="0 0 24 24" opacity="1" transform="rotate(0 677.6846467004541 122.00000000000009)">
          <path d="M9.755 1.52h-.001c-.31 0-.608.124-.828.343L4.037 6.752a1.17 1.17 0 0 1-.827.343H1.17A1.17 1.17 0 0 0 0 8.295l.052 1.984a1.17 1.17 0 0 0 1.17 1.14h2.37c.31 0 .607-.124.827-.344l4.93-4.93c.22-.22.517-.343.827-.343h2.874a1.17 1.17 0 0 0 1.17-1.17V2.69a1.17 1.17 0 0 0-1.17-1.17zm9.78 2.503c-.31 0-.608.123-.828.343l-4.889 4.889a1.17 1.17 0 0 1-.827.342h-2.756c-.31 0-.608.124-.827.344L4.15 15.197a1.17 1.17 0 0 1-.827.343H1.32a1.17 1.17 0 0 0-1.17 1.17v1.996c0 .646.524 1.17 1.17 1.17h2.017c.302 0 .592-.116.81-.325l5.535-5.304a1.17 1.17 0 0 1 .81-.326h2.88c.31 0 .607-.123.827-.342l4.93-4.93c.22-.22.517-.344.827-.344h2.873A1.17 1.17 0 0 0 24 7.135V5.193a1.17 1.17 0 0 0-1.17-1.17h-3.294zm0 8.559c-.31 0-.608.123-.828.343l-4.889 4.889a1.17 1.17 0 0 1-.827.343h-2.04a1.17 1.17 0 0 0-1.17 1.2l.052 1.984a1.17 1.17 0 0 0 1.17 1.14h2.37c.31 0 .607-.124.827-.343l4.93-4.93c.22-.22.517-.343.827-.343h2.873a1.17 1.17 0 0 0 1.17-1.17v-1.943a1.17 1.17 0 0 0-1.17-1.17h-3.294Z" fill="#000000" />
        </svg>
        
      
      </g>
    

      <g class="anim-float" style="animation-delay: 0.6000000000000001s; transform-box: fill-box; transform-origin: center;">
        
            <text 
                x="1153.3507529686426" 
                y="136.44024393977364" 
                font-family="Poppins, sans-serif" 
                font-size="48px" 
                fill="#000000" 
                font-weight="500" 
                text-anchor="start"
                opacity="1"
                transform="rotate(0 1153.3507529686426 98.04024393977363)"
                
            >
                <tspan x="1153.3507529686426" dy="0em">shaad ahmad </tspan>
            </text>
        
      </g>
    

      <g class="anim-float" style="animation-delay: 0.7000000000000001s; transform-box: fill-box; transform-origin: center;">
        
            <text 
                x="1216.8195631014064" 
                y="175.73157293329535" 
                font-family="Poppins, sans-serif" 
                font-size="26px" 
                fill="#000000" 
                font-weight="500" 
                text-anchor="start"
                opacity="1"
                transform="rotate(0 1216.8195631014064 154.93157293329534)"
                
            >
                <tspan x="1216.8195631014064" dy="0em">GenAi  developer</tspan>
            </text>
        
      </g>
    
    </svg>
  